<mxfile host="app.diagrams.net" modified="2024-01-07T02:34:37.488Z" agent="Mozilla/5.0 (Windows NT 10.0; Win64; x64) AppleWebKit/537.36 (KHTML, like Gecko) Chrome/120.0.0.0 Safari/537.36" etag="Nq5CZOFcARIt_8wD8otH" version="22.1.16" type="device">
  <diagram id="C5RBs43oDa-KdzZeNtuy" name="Page-1">
    <mxGraphModel dx="683" dy="355" grid="1" gridSize="10" guides="1" tooltips="1" connect="1" arrows="1" fold="1" page="1" pageScale="1" pageWidth="827" pageHeight="1169" math="0" shadow="0">
      <root>
        <mxCell id="WIyWlLk6GJQsqaUBKTNV-0" />
        <mxCell id="WIyWlLk6GJQsqaUBKTNV-1" parent="WIyWlLk6GJQsqaUBKTNV-0" />
        <mxCell id="mkqup-HLXpr0y_vvKodh-57" value="Digital Baseband" style="rounded=0;whiteSpace=wrap;html=1;verticalAlign=top;fillColor=#f5f5f5;fontColor=#333333;strokeColor=#666666;" parent="WIyWlLk6GJQsqaUBKTNV-1" vertex="1">
          <mxGeometry x="360" y="130" width="200" height="250" as="geometry" />
        </mxCell>
        <mxCell id="mkqup-HLXpr0y_vvKodh-42" value="Digital RF" style="rounded=0;whiteSpace=wrap;html=1;verticalAlign=top;fillColor=#f5f5f5;fontColor=#333333;strokeColor=#666666;" parent="WIyWlLk6GJQsqaUBKTNV-1" vertex="1">
          <mxGeometry x="270" y="130" width="70" height="250" as="geometry" />
        </mxCell>
        <mxCell id="mkqup-HLXpr0y_vvKodh-40" value="Analog RF" style="rounded=0;whiteSpace=wrap;html=1;labelPosition=center;verticalLabelPosition=middle;align=center;verticalAlign=top;fillColor=#f5f5f5;strokeColor=#666666;fontColor=#333333;" parent="WIyWlLk6GJQsqaUBKTNV-1" vertex="1">
          <mxGeometry x="10" y="130" width="240" height="250" as="geometry" />
        </mxCell>
        <mxCell id="mkqup-HLXpr0y_vvKodh-6" style="edgeStyle=orthogonalEdgeStyle;rounded=0;orthogonalLoop=1;jettySize=auto;html=1;exitX=1;exitY=0.5;exitDx=0;exitDy=0;entryX=0;entryY=0.5;entryDx=0;entryDy=0;entryPerimeter=0;" parent="WIyWlLk6GJQsqaUBKTNV-1" source="mkqup-HLXpr0y_vvKodh-0" target="SEqjAX9M_a779w_KXdpA-0" edge="1">
          <mxGeometry relative="1" as="geometry">
            <mxPoint x="80" y="260" as="targetPoint" />
          </mxGeometry>
        </mxCell>
        <mxCell id="mkqup-HLXpr0y_vvKodh-0" value="" style="triangle;whiteSpace=wrap;html=1;rotation=90;" parent="WIyWlLk6GJQsqaUBKTNV-1" vertex="1">
          <mxGeometry x="20" y="160" width="40" height="40" as="geometry" />
        </mxCell>
        <mxCell id="mkqup-HLXpr0y_vvKodh-54" style="edgeStyle=orthogonalEdgeStyle;rounded=0;orthogonalLoop=1;jettySize=auto;html=1;exitX=1;exitY=0.5;exitDx=0;exitDy=0;entryX=0.5;entryY=1;entryDx=0;entryDy=0;" parent="WIyWlLk6GJQsqaUBKTNV-1" source="mkqup-HLXpr0y_vvKodh-3" target="mkqup-HLXpr0y_vvKodh-51" edge="1">
          <mxGeometry relative="1" as="geometry" />
        </mxCell>
        <mxCell id="mkqup-HLXpr0y_vvKodh-3" value="LNA" style="triangle;whiteSpace=wrap;html=1;align=left;" parent="WIyWlLk6GJQsqaUBKTNV-1" vertex="1">
          <mxGeometry x="160" y="240" width="40" height="40" as="geometry" />
        </mxCell>
        <mxCell id="mkqup-HLXpr0y_vvKodh-34" style="edgeStyle=orthogonalEdgeStyle;rounded=0;orthogonalLoop=1;jettySize=auto;html=1;exitX=1;exitY=0.5;exitDx=0;exitDy=0;entryX=0;entryY=0.5;entryDx=0;entryDy=0;entryPerimeter=0;" parent="WIyWlLk6GJQsqaUBKTNV-1" source="mkqup-HLXpr0y_vvKodh-22" target="SEqjAX9M_a779w_KXdpA-5" edge="1">
          <mxGeometry relative="1" as="geometry">
            <mxPoint x="500" y="200" as="targetPoint" />
          </mxGeometry>
        </mxCell>
        <mxCell id="mkqup-HLXpr0y_vvKodh-22" value="" style="shape=sumEllipse;perimeter=ellipsePerimeter;whiteSpace=wrap;html=1;backgroundOutline=1;" parent="WIyWlLk6GJQsqaUBKTNV-1" vertex="1">
          <mxGeometry x="330" y="180" width="40" height="40" as="geometry" />
        </mxCell>
        <mxCell id="mkqup-HLXpr0y_vvKodh-35" style="edgeStyle=orthogonalEdgeStyle;rounded=0;orthogonalLoop=1;jettySize=auto;html=1;exitX=1;exitY=0.5;exitDx=0;exitDy=0;entryX=0;entryY=0.5;entryDx=0;entryDy=0;entryPerimeter=0;" parent="WIyWlLk6GJQsqaUBKTNV-1" source="mkqup-HLXpr0y_vvKodh-23" target="SEqjAX9M_a779w_KXdpA-6" edge="1">
          <mxGeometry relative="1" as="geometry">
            <mxPoint x="500" y="320" as="targetPoint" />
          </mxGeometry>
        </mxCell>
        <mxCell id="mkqup-HLXpr0y_vvKodh-23" value="" style="shape=sumEllipse;perimeter=ellipsePerimeter;whiteSpace=wrap;html=1;backgroundOutline=1;" parent="WIyWlLk6GJQsqaUBKTNV-1" vertex="1">
          <mxGeometry x="330" y="300" width="40" height="40" as="geometry" />
        </mxCell>
        <mxCell id="mkqup-HLXpr0y_vvKodh-36" style="edgeStyle=orthogonalEdgeStyle;rounded=0;orthogonalLoop=1;jettySize=auto;html=1;exitX=1;exitY=0.5;exitDx=0;exitDy=0;exitPerimeter=0;" parent="WIyWlLk6GJQsqaUBKTNV-1" source="SEqjAX9M_a779w_KXdpA-5" edge="1">
          <mxGeometry relative="1" as="geometry">
            <mxPoint x="580" y="200" as="targetPoint" />
            <mxPoint x="540" y="200" as="sourcePoint" />
          </mxGeometry>
        </mxCell>
        <mxCell id="mkqup-HLXpr0y_vvKodh-38" value="I" style="edgeLabel;html=1;align=center;verticalAlign=middle;resizable=0;points=[];" parent="mkqup-HLXpr0y_vvKodh-36" vertex="1" connectable="0">
          <mxGeometry x="-0.2117" y="2" relative="1" as="geometry">
            <mxPoint x="34" y="2" as="offset" />
          </mxGeometry>
        </mxCell>
        <mxCell id="mkqup-HLXpr0y_vvKodh-37" value="Q" style="edgeStyle=orthogonalEdgeStyle;rounded=0;orthogonalLoop=1;jettySize=auto;html=1;exitX=1;exitY=0.5;exitDx=0;exitDy=0;exitPerimeter=0;" parent="WIyWlLk6GJQsqaUBKTNV-1" source="SEqjAX9M_a779w_KXdpA-6" edge="1">
          <mxGeometry x="1" y="-10" relative="1" as="geometry">
            <mxPoint x="580" y="320" as="targetPoint" />
            <mxPoint x="540" y="320" as="sourcePoint" />
            <mxPoint x="10" y="-10" as="offset" />
          </mxGeometry>
        </mxCell>
        <mxCell id="mkqup-HLXpr0y_vvKodh-55" style="edgeStyle=orthogonalEdgeStyle;rounded=0;orthogonalLoop=1;jettySize=auto;html=1;exitX=0.5;exitY=0;exitDx=0;exitDy=0;entryX=0;entryY=0.5;entryDx=0;entryDy=0;" parent="WIyWlLk6GJQsqaUBKTNV-1" source="mkqup-HLXpr0y_vvKodh-51" target="mkqup-HLXpr0y_vvKodh-22" edge="1">
          <mxGeometry relative="1" as="geometry" />
        </mxCell>
        <mxCell id="mkqup-HLXpr0y_vvKodh-56" style="edgeStyle=orthogonalEdgeStyle;rounded=0;orthogonalLoop=1;jettySize=auto;html=1;exitX=0.5;exitY=0;exitDx=0;exitDy=0;entryX=0;entryY=0.5;entryDx=0;entryDy=0;" parent="WIyWlLk6GJQsqaUBKTNV-1" source="mkqup-HLXpr0y_vvKodh-51" target="mkqup-HLXpr0y_vvKodh-23" edge="1">
          <mxGeometry relative="1" as="geometry" />
        </mxCell>
        <mxCell id="mkqup-HLXpr0y_vvKodh-51" value="ADC" style="shape=offPageConnector;whiteSpace=wrap;html=1;rotation=90;size=0.49999999999999717;horizontal=0;" parent="WIyWlLk6GJQsqaUBKTNV-1" vertex="1">
          <mxGeometry x="240" y="240" width="40" height="40" as="geometry" />
        </mxCell>
        <mxCell id="bBbGIOUQQ_QmJ0K_u6Ie-6" style="edgeStyle=orthogonalEdgeStyle;rounded=0;orthogonalLoop=1;jettySize=auto;html=1;exitX=0;exitY=0.5;exitDx=0;exitDy=0;entryX=0.5;entryY=1;entryDx=0;entryDy=0;" parent="WIyWlLk6GJQsqaUBKTNV-1" source="bBbGIOUQQ_QmJ0K_u6Ie-0" target="mkqup-HLXpr0y_vvKodh-22" edge="1">
          <mxGeometry relative="1" as="geometry" />
        </mxCell>
        <mxCell id="bBbGIOUQQ_QmJ0K_u6Ie-0" value="0°" style="rounded=0;whiteSpace=wrap;html=1;" parent="WIyWlLk6GJQsqaUBKTNV-1" vertex="1">
          <mxGeometry x="375" y="230" width="40" height="20" as="geometry" />
        </mxCell>
        <mxCell id="bBbGIOUQQ_QmJ0K_u6Ie-1" style="edgeStyle=orthogonalEdgeStyle;rounded=0;orthogonalLoop=1;jettySize=auto;html=1;entryX=1;entryY=0.5;entryDx=0;entryDy=0;exitX=0;exitY=0.5;exitDx=0;exitDy=0;exitPerimeter=0;" parent="WIyWlLk6GJQsqaUBKTNV-1" source="SEqjAX9M_a779w_KXdpA-7" target="bBbGIOUQQ_QmJ0K_u6Ie-0" edge="1">
          <mxGeometry relative="1" as="geometry">
            <Array as="points">
              <mxPoint x="435" y="260" />
              <mxPoint x="435" y="240" />
            </Array>
            <mxPoint x="445" y="260" as="sourcePoint" />
          </mxGeometry>
        </mxCell>
        <mxCell id="bBbGIOUQQ_QmJ0K_u6Ie-2" style="edgeStyle=orthogonalEdgeStyle;rounded=0;orthogonalLoop=1;jettySize=auto;html=1;exitX=0;exitY=0.5;exitDx=0;exitDy=0;entryX=1;entryY=0.5;entryDx=0;entryDy=0;exitPerimeter=0;" parent="WIyWlLk6GJQsqaUBKTNV-1" source="SEqjAX9M_a779w_KXdpA-7" target="bBbGIOUQQ_QmJ0K_u6Ie-4" edge="1">
          <mxGeometry relative="1" as="geometry">
            <Array as="points">
              <mxPoint x="435" y="260" />
              <mxPoint x="435" y="280" />
            </Array>
            <mxPoint x="445" y="260" as="sourcePoint" />
          </mxGeometry>
        </mxCell>
        <mxCell id="bBbGIOUQQ_QmJ0K_u6Ie-7" style="edgeStyle=orthogonalEdgeStyle;rounded=0;orthogonalLoop=1;jettySize=auto;html=1;exitX=0;exitY=0.5;exitDx=0;exitDy=0;entryX=0.5;entryY=0;entryDx=0;entryDy=0;" parent="WIyWlLk6GJQsqaUBKTNV-1" source="bBbGIOUQQ_QmJ0K_u6Ie-4" target="mkqup-HLXpr0y_vvKodh-23" edge="1">
          <mxGeometry relative="1" as="geometry" />
        </mxCell>
        <mxCell id="bBbGIOUQQ_QmJ0K_u6Ie-4" value="90°" style="rounded=0;whiteSpace=wrap;html=1;" parent="WIyWlLk6GJQsqaUBKTNV-1" vertex="1">
          <mxGeometry x="375" y="270" width="40" height="20" as="geometry" />
        </mxCell>
        <mxCell id="bBbGIOUQQ_QmJ0K_u6Ie-5" value="NCO" style="text;strokeColor=none;align=left;fillColor=none;html=1;verticalAlign=middle;whiteSpace=wrap;rounded=0;" parent="WIyWlLk6GJQsqaUBKTNV-1" vertex="1">
          <mxGeometry x="485" y="245" width="60" height="30" as="geometry" />
        </mxCell>
        <mxCell id="SEqjAX9M_a779w_KXdpA-2" style="edgeStyle=orthogonalEdgeStyle;rounded=0;orthogonalLoop=1;jettySize=auto;html=1;exitX=1;exitY=0.5;exitDx=0;exitDy=0;exitPerimeter=0;entryX=0;entryY=0.5;entryDx=0;entryDy=0;" edge="1" parent="WIyWlLk6GJQsqaUBKTNV-1" source="SEqjAX9M_a779w_KXdpA-0" target="mkqup-HLXpr0y_vvKodh-3">
          <mxGeometry relative="1" as="geometry" />
        </mxCell>
        <mxCell id="SEqjAX9M_a779w_KXdpA-0" value="" style="verticalLabelPosition=bottom;shadow=0;dashed=0;align=center;html=1;verticalAlign=top;shape=mxgraph.electrical.logic_gates.bandpass_filter;" vertex="1" parent="WIyWlLk6GJQsqaUBKTNV-1">
          <mxGeometry x="80" y="240" width="40" height="40" as="geometry" />
        </mxCell>
        <mxCell id="SEqjAX9M_a779w_KXdpA-5" value="" style="verticalLabelPosition=bottom;shadow=0;dashed=0;align=center;html=1;verticalAlign=top;shape=mxgraph.electrical.logic_gates.lowpass_filter;" vertex="1" parent="WIyWlLk6GJQsqaUBKTNV-1">
          <mxGeometry x="500" y="180" width="40" height="40" as="geometry" />
        </mxCell>
        <mxCell id="SEqjAX9M_a779w_KXdpA-6" value="" style="verticalLabelPosition=bottom;shadow=0;dashed=0;align=center;html=1;verticalAlign=top;shape=mxgraph.electrical.logic_gates.lowpass_filter;" vertex="1" parent="WIyWlLk6GJQsqaUBKTNV-1">
          <mxGeometry x="500" y="300" width="40" height="40" as="geometry" />
        </mxCell>
        <mxCell id="SEqjAX9M_a779w_KXdpA-7" value="" style="pointerEvents=1;verticalLabelPosition=bottom;shadow=0;dashed=0;align=center;html=1;verticalAlign=top;shape=mxgraph.electrical.signal_sources.source;aspect=fixed;points=[[0.5,0,0],[1,0.5,0],[0.5,1,0],[0,0.5,0]];elSignalType=ac;" vertex="1" parent="WIyWlLk6GJQsqaUBKTNV-1">
          <mxGeometry x="445" y="240" width="40" height="40" as="geometry" />
        </mxCell>
      </root>
    </mxGraphModel>
  </diagram>
</mxfile>
